<?xml version="1.0" encoding="UTF-8"?>
<svg xmlns="http://www.w3.org/2000/svg" xmlns:xlink="http://www.w3.org/1999/xlink" width="150pt" height="150pt" viewBox="0 0 150 150" version="1.1">
<g id="surface23994024">
<path style=" stroke:none;fill-rule:nonzero;fill:rgb(100%,100%,100%);fill-opacity:1;" d="M 16.5 21 C 9.09375 21 3.035156 27.046875 3 34.453125 C 3 34.453125 3 34.464844 3 34.476562 C 3 34.488281 3 34.488281 3 34.5 L 3 115.5 C 3 122.917969 9.082031 129 16.5 129 L 133.5 129 C 140.917969 129 147 122.917969 147 115.5 L 147 34.5 C 147 34.488281 147 34.488281 147 34.476562 C 147 34.464844 147 34.453125 147 34.453125 C 146.964844 27.046875 140.90625 21 133.5 21 Z M 24.304688 27 L 125.707031 27 L 75 62.34375 Z M 14.320312 27.351562 L 75 69.65625 L 135.691406 27.351562 C 138.761719 28.277344 140.976562 31.066406 141 34.464844 C 140.988281 35.097656 140.34375 36.363281 139.40625 37.382812 C 138.457031 38.414062 137.53125 39.058594 137.53125 39.058594 L 137.519531 39.082031 L 75 83.332031 L 12.480469 39.082031 L 12.46875 39.058594 C 12.46875 39.058594 11.542969 38.414062 10.59375 37.382812 C 9.65625 36.363281 9.011719 35.097656 9 34.464844 C 9.023438 31.066406 11.238281 28.277344 14.320312 27.351562 Z M 9 43.957031 L 9.023438 43.980469 L 9.046875 43.992188 L 9.046875 44.003906 L 18 50.332031 L 18 123 L 16.5 123 C 12.328125 123 9 119.671875 9 115.5 Z M 141 43.957031 L 141 115.5 C 141 119.671875 137.671875 123 133.5 123 L 132 123 L 132 50.332031 L 140.953125 44.003906 L 140.953125 43.992188 Z M 24 54.574219 L 75 90.667969 L 126 54.574219 L 126 123 L 24 123 Z M 24 54.574219 "/>
</g>
</svg>
